<?xml version="1.0" encoding="UTF-8"?>
<!DOCTYPE svg PUBLIC "-//W3C//DTD SVG 1.1//EN" "http://www.w3.org/Graphics/SVG/1.1/DTD/svg11.dtd">
<!-- Creator: CorelDRAW 2018 (64-Bit Evaluation Version) -->
<svg xmlns="http://www.w3.org/2000/svg" xml:space="preserve" width="150mm" height="25mm" version="1.1" style="shape-rendering:geometricPrecision; text-rendering:geometricPrecision; image-rendering:optimizeQuality; fill-rule:evenodd; clip-rule:evenodd"
viewBox="0 0 15000 2500"
 xmlns:xlink="http://www.w3.org/1999/xlink">
 <defs>
  <style type="text/css">
   <![CDATA[
    .fil1 {fill:#2B2A29}
    .fil0 {fill:#3E3185}
    .fil5 {fill:#F6AB60;fill-rule:nonzero}
    .fil4 {fill:#E8398C;fill-rule:nonzero}
    .fil6 {fill:#A8D9F5;fill-rule:nonzero}
    .fil3 {fill:#7C3186;fill-rule:nonzero}
    .fil7 {fill:#5B6FB3;fill-rule:nonzero}
    .fil2 {fill:#3E3185;fill-rule:nonzero}
   ]]>
  </style>
 </defs>
 <g id="Layer_x0020_1">
  <metadata id="CorelCorpID_0Corel-Layer"/>
  <g id="_2780309220752">
   <path class="fil0" d="M13420.92 1431.35l251.74 0 0 -1204.07 -251.74 0 0 1204.07zm-299.23 0l0 -1204.07 -251.74 0 0 489.37 -1010.43 0 0 -489.37 -251.71 0 0 1204.07 251.71 0 0 -491.14 1010.43 0 0 491.14 251.74 0zm-3261.82 -225.32l0 225.32 1054.38 0c339.73,0 470.01,-144.36 470.01,-348.55 0,-242.92 -183.06,-332.7 -466.48,-355.6l-554.5 -43.99c-197.16,-15.84 -242.92,-51.05 -242.92,-117.9 0,-81 66.89,-112.67 184.86,-112.67l1001.57 0 0 -225.36 -978.71 0c-248.22,0 -462.99,89.78 -462.99,345.02 0,221.79 161.96,318.63 433.04,339.76l582.68 45.75c172.51,14.08 244.69,54.58 244.69,135.58 0,66.85 -47.52,112.64 -195.37,112.64l-1070.26 0zm-1582.56 -723.48l1.76 0c121.47,0 130.28,19.37 438.33,422.45 329.18,431.31 418.96,526.35 716.42,526.35l177.84 0 0 -1204.07 -251.75 0 0 948.83 -1.76 0c-130.25,0 -151.38,-28.15 -438.33,-424.25 -304.51,-420.72 -392.53,-524.58 -716.42,-524.58l-177.8 0 0 1204.07 251.71 0 0 -948.8zm-2024.3 367.91c0,434.77 205.95,598.49 746.37,598.49 540.38,0 744.6,-163.72 744.6,-598.49l0 -623.18 -251.74 0 0 623.18c0,288.68 -98.59,353.8 -492.86,353.8 -394.33,0 -494.66,-65.12 -494.66,-353.8l0 -623.18 -251.71 0 0 623.18zm-1293.81 332.71l193.6 0 572.1 -690.07 0 938.25 246.45 0 0 -1204.07 -244.68 0c-93.28,0 -133.78,47.56 -170.75,93.31l-499.92 614.36 -499.92 -614.36c-36.97,-45.75 -77.44,-93.31 -170.75,-93.31l-244.68 0 0 1204.07 246.45 0 0 -938.25 572.1 690.07z"/>
   <path class="fil1" d="M14169.22 457.17l58.92 0c28.22,0 47.4,-4.18 57.65,-12.56 10.27,-8.31 15.41,-19.42 15.41,-33.08 0,-8.86 -2.54,-16.81 -7.45,-23.77 -4.92,-7.11 -11.78,-12.27 -20.45,-15.67 -8.93,-3.39 -25.06,-5.22 -48.85,-5.22l-55.23 0 0 90.3zm-48.56 169.14l48.56 0 0 -127.44 28.58 0c17.05,-0.12 29.98,3.27 38.77,10.13 12.94,9.34 29.99,32.72 50.99,70.03l26.82 47.28 58.87 0 -36.66 -58.8c-17.53,-27.92 -32.34,-47.77 -44.54,-59.54 -6.26,-6.19 -14.88,-11.53 -25.49,-15.9 26.04,-2.01 46.91,-11.11 62.56,-27.43 15.85,-16.21 23.62,-35.44 23.62,-57.29 0,-15.53 -4.68,-30.22 -13.97,-44 -9.46,-13.89 -22.02,-23.48 -37.93,-29.06 -15.82,-5.59 -41.39,-8.32 -76.76,-8.32l-103.42 0 0 300.34zm122.78 -387.61c-39.33,0 -77.62,10.13 -114.83,30.22 -37.14,20.09 -66.2,48.93 -87.13,86.36 -21.01,37.45 -31.57,76.34 -31.57,116.82 0,40.31 10.37,78.84 31.02,115.79 20.62,36.9 49.39,65.73 86.48,86.36 37.02,20.57 75.74,30.95 116.03,30.95 40.23,0 78.84,-10.38 115.91,-30.95 37.02,-20.63 65.85,-49.46 86.36,-86.36 20.5,-36.95 30.7,-75.48 30.7,-115.79 0,-40.48 -10.49,-79.37 -31.38,-116.82 -20.81,-37.43 -49.88,-66.27 -87.26,-86.36 -37.27,-20.09 -75.44,-30.22 -114.33,-30.22zm0 -46.24c46.91,0 92.67,11.95 137.39,36.1 44.66,24.04 79.57,58.56 104.44,103.36 24.89,44.84 37.38,91.64 37.38,140.18 0,48.13 -12.25,94.55 -36.9,138.91 -24.51,44.49 -58.92,79.01 -103.21,103.55 -44.44,24.63 -90.8,36.9 -139.1,36.9 -48.43,0 -94.86,-12.27 -139.22,-36.9 -44.37,-24.54 -78.83,-59.06 -103.48,-103.55 -24.68,-44.36 -37.07,-90.78 -37.07,-138.91 0,-48.54 12.51,-95.34 37.5,-140.18 25.19,-44.8 60.09,-79.32 104.7,-103.36 44.78,-24.15 90.54,-36.1 137.57,-36.1z"/>
   <path class="fil2" d="M477.34 227.28l0 2009.67 419.06 0 730.61 0 0 -548.43 402.66 395.39 402.66 -395.39 0 548.43 732.47 0 417.23 0 0 -750.68 0 -1258.99 -850.86 0c-158.54,0 -211.39,96.56 -289.7,156.7l-411.8 302.44 -409.93 -302.44c-80.19,-60.14 -131.2,-156.7 -289.7,-156.7l-852.7 0z"/>
   <path class="fil3" d="M3582.03 1262.19c-69.25,-18.24 -143.94,-21.88 -220.49,-20.04 -143.93,7.3 -287.87,18.2 -424.5,-12.77 -125.73,-29.14 -225.92,-87.46 -315.2,-147.57 -51.01,-34.64 -105.66,-67.41 -158.51,-98.39 -52.84,-30.97 -109.32,-61.95 -171.27,-85.65 -61.95,-25.51 -131.2,-41.91 -204.08,-52.81 -69.22,-7.31 -140.3,-9.14 -209.52,-12.74 -112.96,-7.34 -229.55,-10.97 -337.08,-36.48 -103.85,-23.67 -189.47,-67.41 -255.05,-125.73 -98.39,-85.62 -138.47,-187.64 -169.44,-289.7 -16.41,-50.97 -29.18,-102.02 -52.85,-153.03l-586.7 0 0 2009.67 419.06 0 730.64 0 0 -548.43 402.66 395.39 402.66 -395.39 0 548.43 732.44 0 417.23 0 0 -750.64 0 -224.12z"/>
   <path class="fil4" d="M3582.03 1690.35c-5.47,-5.44 -12.77,-10.94 -20.04,-14.57 -41.91,-32.81 -80.19,-67.42 -129.36,-94.76 -65.59,-36.44 -145.77,-52.85 -233.23,-52.85 -83.82,0 -165.8,10.97 -249.59,18.24 -74.71,5.47 -145.76,5.47 -220.48,-3.67 -111.13,-14.57 -209.52,-47.34 -291.54,-98.39 -92.88,-58.28 -162.13,-127.53 -247.75,-189.47 -89.29,-63.75 -193.15,-120.23 -317.04,-151.2 -112.96,-29.18 -236.86,-36.45 -357.12,-34.61 -134.83,0 -264.2,7.27 -397.19,-12.77 -107.5,-16.37 -211.35,-47.34 -295.17,-92.92 -209.52,-116.6 -266,-302.48 -324.31,-466.45 -7.27,-20.03 -14.57,-38.24 -21.87,-58.28l0 1798.29 419.06 0 730.64 0 0 -548.43 402.66 395.39 402.66 -395.39 0 548.43 732.44 0 417.23 0 0 -546.59z"/>
   <path class="fil5" d="M2326.67 1792.39c-80.15,-5.47 -158.51,-21.88 -229.55,-49.22 -102.06,-40.07 -180.42,-100.18 -258.73,-158.5 -83.82,-61.95 -171.28,-122.1 -284.24,-162.14 -98.38,-34.64 -207.71,-45.54 -317.04,-51.04 -63.74,-3.64 -129.36,-3.64 -193.11,-7.31 -61.98,-5.43 -122.09,-14.56 -180.41,-30.97 -109.29,-29.14 -204.04,-78.32 -282.4,-134.8 -38.27,-29.13 -72.88,-60.14 -103.85,-91.12l0 1129.67 419.06 0 730.6 0 0 -548.43 402.7 395.39 296.97 -291.53zm1255.36 107.49c-92.92,-47.38 -178.58,-103.82 -284.24,-140.3 -262.36,-89.29 -537.49,10.93 -805.32,30.97 -20.03,1.84 -40.11,3.67 -60.11,3.67l0 442.74 732.44 0 417.23 0 0 -337.08z"/>
   <path class="fil6" d="M1627.02 1825.18c-43.71,-25.54 -92.92,-49.21 -149.4,-67.41 -127.53,-41.91 -269.66,-43.71 -408.13,-43.71 -140.3,0 -282.4,1.8 -417.23,-27.38 -60.11,-12.73 -120.26,-30.97 -174.91,-52.81l0 603.08 419.07 0 730.6 0 0 -411.77zm424.53 236.86c-18.2,-1.84 -38.27,-7.3 -54.68,-10.94l32.81 32.81 21.87 -21.87zm1530.46 29.14c-25.51,3.67 -52.85,7.3 -80.15,10.93 -61.95,5.47 -118.43,0 -178.58,-10.93 -98.39,-20.04 -182.17,-58.28 -276.93,-83.82 -118.43,-32.81 -245.95,-30.98 -369.85,-10.94 -83.82,10.94 -162.17,30.98 -244.16,47.38l0 193.15 732.44 0 417.23 0 0 -145.77z"/>
   <path class="fil7" d="M1627.02 2165.9c-58.31,-1.83 -116.59,-3.66 -167.6,-10.97 -71.09,-9.06 -145.77,-27.3 -187.68,-69.18 -20.04,-20.07 -34.61,-40.11 -54.68,-60.18 -29.14,-30.94 -69.22,-56.45 -111.13,-78.32 -72.88,-40.07 -160.33,-63.78 -253.26,-72.88 -85.62,-9.1 -173.07,-3.64 -258.72,-5.47 -40.08,-1.83 -78.32,-3.63 -116.6,-5.47l0 373.52 419.07 0 730.6 0 0 -71.05z"/>
   <path class="fil3" d="M4112.17 2307.53l421.94 0c183.94,0 247.01,-87.84 247.01,-256.77 0,-168.93 -63.07,-256.77 -247.01,-256.77l-421.94 0 0 513.54zm559.34 -256.77c0,98.35 -15.02,151.66 -137.4,151.66l-314.58 0 0 -304.07 314.58 0c122.38,0 137.4,54.06 137.4,152.41zm482.37 -256.77l0 513.54 107.36 0 0 -513.54 -107.36 0zm1026.7 233.5l0 174.93 -299.57 0c-122.38,0 -137.39,-53.31 -137.39,-152.41 0,-98.35 15.01,-151.66 137.39,-151.66l400.92 0 0 -104.36 -400.92 0c-183.94,0 -247.01,87.84 -247.01,256.02 0,168.93 63.07,257.52 247.01,257.52l406.93 0 0 -280.04 -107.36 0zm490.63 -233.5l0 513.54 107.36 0 0 -513.54 -107.36 0zm816.48 513.54l0 -416.69 255.27 0 0 -96.85 -617.9 0 0 96.85 255.26 0 0 416.69 107.37 0zm1009.42 -412.18c-33.03,-63.82 -71.32,-108.87 -159.16,-108.87 -87.85,0 -126.89,45.05 -159.17,108.87l-210.22 412.18 114.87 0 65.32 -126.88 378.39 0 65.32 126.88 115.62 0 -210.97 -412.18zm-19.52 189.95l-280.04 0 87.09 -168.18c11.26,-21.77 25.53,-35.29 53.31,-35.29 27.77,0 42.04,13.52 53.3,35.29l86.34 168.18zm543.94 -291.31l0 301.07c0,153.91 78.08,212.47 247.76,212.47l342.36 0 0 -105.11 -342.36 0c-108.11,0 -140.4,-23.28 -140.4,-107.36l0 -301.07 -107.36 0z"/>
  </g>
 </g>
</svg>
